<?xml version="1.0" encoding="UTF-8" ?>
<!DOCTYPE svg PUBLIC "-//W3C//DTD SVG 1.1//EN" "http://www.w3.org/Graphics/SVG/1.1/DTD/svg11.dtd">
<svg width="150pt" height="65pt" viewBox="0 0 250 100" version="1.1" xmlns="http://www.w3.org/2000/svg">
<g id="#006da6ff">
<path fill="#006da6" opacity="1.00" d=" M 171.45 0.00 L 176.05 0.00 C 182.81 1.30 187.22 9.43 183.65 15.58 C 180.00 23.08 168.05 23.26 164.13 15.91 C 160.28 9.77 164.62 1.44 171.45 0.00 Z" />
<path fill="#006da6" opacity="1.00" d=" M 137.11 63.16 C 143.87 61.08 151.67 66.83 151.12 74.02 C 151.00 80.90 143.40 85.97 136.94 83.87 C 131.26 82.45 127.49 75.92 129.47 70.32 C 130.59 66.84 133.58 64.09 137.11 63.16 Z" />
</g>
<g id="#3bb3c3ff">
<path fill="#3bb3c3" opacity="1.00" d=" M 170.52 31.65 C 176.80 29.54 184.31 34.16 184.84 40.85 C 185.70 47.35 179.51 53.32 173.08 52.66 C 166.83 52.49 161.52 46.19 162.90 39.98 C 163.59 36.05 166.73 32.78 170.52 31.65 Z" />
<path fill="#3bb3c3" opacity="1.00" d=" M 202.47 31.61 C 208.75 29.57 216.19 34.28 216.63 40.95 C 217.43 47.35 211.39 53.22 205.06 52.67 C 198.74 52.61 193.33 46.26 194.70 40.00 C 195.39 36.01 198.59 32.68 202.47 31.61 Z" />
</g>
<g id="#788991ff">
<path fill="#788991" opacity="1.00" d=" M 170.23 63.27 C 176.40 61.03 183.87 65.31 184.84 71.84 C 186.00 77.87 180.98 83.91 174.95 84.33 C 169.24 85.06 163.42 80.70 162.72 74.96 C 161.92 69.88 165.43 64.81 170.23 63.27 Z" />
</g>
</svg>
