<?xml version="1.0" encoding="UTF-8" ?>
<!DOCTYPE svg PUBLIC "-//W3C//DTD SVG 1.1//EN" "http://www.w3.org/Graphics/SVG/1.1/DTD/svg11.dtd">
<svg width="349pt" height="357pt" viewBox="0 0 349 357" version="1.1" xmlns="http://www.w3.org/2000/svg">
<g id="#10123bff">
<path fill="#10123b" opacity="1.00" d=" M 0.00 0.00 L 0.16 0.00 C 0.12 0.03 0.04 0.10 0.00 0.13 L 0.00 0.00 Z" />
<path fill="#10123b" opacity="1.00" d=" M 151.89 30.73 C 166.55 23.46 184.93 24.50 198.73 33.26 C 199.82 33.93 200.96 34.62 202.30 34.52 C 226.54 34.54 250.79 34.48 275.04 34.54 C 286.79 34.57 297.43 45.16 297.29 56.96 C 297.30 140.98 297.31 225.00 297.28 309.02 C 297.23 312.33 297.46 315.66 297.05 318.96 C 295.67 328.14 288.11 335.93 279.06 337.82 C 275.43 338.46 271.73 338.19 268.07 338.25 C 201.05 338.39 134.03 338.12 67.01 338.36 C 65.93 338.43 65.05 338.01 64.37 337.09 C 64.10 337.22 63.58 337.47 63.31 337.60 C 63.06 337.21 62.56 336.44 62.30 336.06 C 53.96 332.84 48.39 323.85 48.69 314.98 C 48.68 228.99 48.67 142.99 48.69 57.00 C 48.56 45.14 59.13 34.62 70.95 34.54 C 95.47 34.39 119.99 34.68 144.51 34.40 C 147.10 33.47 149.35 31.80 151.89 30.73 M 165.38 35.49 C 151.27 38.23 138.97 49.04 134.77 62.83 C 131.40 73.11 132.66 84.70 137.82 94.18 C 145.76 109.02 163.78 117.78 180.32 114.31 C 193.47 111.96 205.08 102.53 210.04 90.12 C 214.39 79.84 213.99 67.80 209.25 57.73 C 204.42 47.66 195.22 39.83 184.57 36.52 C 178.42 34.46 171.72 34.63 165.38 35.49 M 57.57 57.95 C 57.57 72.64 57.50 87.33 57.62 102.01 C 82.49 101.98 107.35 102.01 132.22 102.00 C 128.48 95.94 125.62 89.21 124.82 82.09 C 122.61 68.53 126.79 54.31 135.30 43.60 C 114.20 43.41 93.10 43.53 72.01 43.51 C 64.17 43.08 57.23 50.16 57.57 57.95 M 210.72 43.65 C 224.03 59.88 225.33 84.46 213.79 102.00 C 238.64 102.01 263.48 101.98 288.33 102.01 C 288.49 88.68 288.39 75.36 288.38 62.03 C 288.34 59.11 288.47 56.15 287.77 53.30 C 285.88 47.53 280.10 43.23 273.96 43.51 C 252.88 43.59 231.79 43.32 210.72 43.65 M 57.57 111.03 C 57.59 179.01 57.60 246.99 57.63 314.98 C 57.52 319.74 60.04 324.36 63.96 327.03 C 67.06 329.51 71.28 328.63 74.93 329.30 C 85.56 329.57 96.23 328.59 106.86 329.26 C 149.90 328.93 192.95 329.07 236.00 329.09 C 247.35 329.19 258.71 328.94 270.05 329.48 C 273.87 329.48 277.92 329.32 281.31 327.38 C 285.76 325.04 288.50 320.01 288.39 315.03 C 288.31 247.03 288.42 179.02 288.32 111.02 C 261.88 111.00 235.44 111.05 209.00 111.00 C 207.60 111.06 205.96 110.70 204.92 111.90 C 194.30 121.01 179.63 125.45 165.77 123.16 C 156.07 122.02 147.31 117.09 139.81 111.08 C 112.40 110.94 84.98 111.05 57.57 111.03 Z" />
<path fill="#10123b" opacity="1.00" d=" M 169.99 43.94 C 171.65 42.50 174.16 42.73 175.79 44.11 C 177.63 45.41 177.01 47.90 177.27 49.82 C 182.61 51.47 188.40 53.72 191.32 58.84 C 192.59 61.32 193.90 64.57 192.27 67.19 C 190.89 69.72 186.95 69.95 185.11 67.83 C 184.14 66.33 184.13 64.40 183.17 62.90 C 181.74 60.93 179.42 60.02 177.31 59.00 C 177.15 62.85 177.19 66.70 177.19 70.55 C 180.51 72.60 184.78 72.51 187.73 75.24 C 192.90 79.14 194.70 87.31 190.51 92.55 C 187.34 96.81 182.15 98.68 177.24 100.10 C 177.85 103.35 176.00 107.37 172.19 106.86 C 168.69 106.50 168.10 102.68 168.12 99.85 C 163.78 98.72 159.31 97.15 156.16 93.81 C 153.43 91.04 151.75 86.89 152.92 83.04 C 153.97 80.23 158.19 79.89 160.15 81.88 C 161.35 83.57 161.35 85.84 162.56 87.54 C 164.08 89.14 166.25 89.83 168.26 90.61 C 168.34 86.80 168.33 83.00 168.27 79.19 C 163.38 77.96 158.31 76.05 155.12 71.93 C 151.48 67.63 151.61 60.63 155.48 56.51 C 158.67 52.75 163.52 51.21 168.09 49.88 C 168.47 47.88 168.04 45.23 169.99 43.94 M 160.87 64.04 C 161.82 67.66 165.41 69.34 168.73 70.23 C 168.48 66.42 168.44 62.60 168.44 58.79 C 165.45 59.74 162.49 61.20 160.87 64.04 M 177.11 79.79 C 176.95 83.51 176.90 87.24 177.16 90.96 C 179.70 90.07 182.17 88.89 183.96 86.82 C 183.98 86.14 184.02 84.79 184.04 84.11 C 182.24 81.97 179.83 80.45 177.11 79.79 Z" />
<path fill="#10123b" opacity="1.00" d=" M 116.54 133.49 C 117.87 129.73 124.40 130.03 125.12 134.04 C 125.62 138.65 125.26 143.31 125.27 147.94 C 130.09 148.18 134.94 147.58 139.72 148.30 C 143.38 149.53 143.36 155.50 139.77 156.81 C 134.98 157.46 130.12 156.92 125.30 157.10 C 125.25 161.72 125.59 166.35 125.16 170.96 C 124.49 175.04 117.78 175.39 116.54 171.50 C 115.79 166.72 116.41 161.86 116.18 157.05 C 111.30 156.92 106.34 157.59 101.52 156.66 C 97.96 155.17 98.37 148.95 102.24 148.24 C 106.88 147.63 111.57 148.11 116.23 148.00 C 116.38 143.17 115.81 138.29 116.54 133.49 Z" />
<path fill="#10123b" opacity="1.00" d=" M 202.86 154.03 C 201.72 151.31 204.06 147.82 207.05 148.06 C 218.96 147.94 230.89 147.89 242.80 148.07 C 246.57 149.28 246.74 154.53 243.76 156.76 C 231.86 157.55 219.94 156.85 208.03 157.14 C 205.92 157.25 203.41 156.28 202.86 154.03 Z" />
<path fill="#10123b" opacity="1.00" d=" M 85.33 185.40 C 108.81 185.18 132.32 185.32 155.81 185.33 C 160.94 185.49 161.26 193.86 156.09 194.39 C 132.71 194.54 109.32 194.52 85.93 194.42 C 80.75 194.53 80.16 185.94 85.33 185.40 Z" />
<path fill="#10123b" opacity="1.00" d=" M 188.53 185.53 C 211.96 184.98 235.41 185.40 258.85 185.33 C 262.18 184.99 264.67 189.13 263.01 191.98 C 261.98 194.21 259.27 194.63 257.08 194.53 C 234.38 194.34 211.67 194.72 188.97 194.35 C 184.37 194.12 183.95 186.17 188.53 185.53 Z" />
<path fill="#10123b" opacity="1.00" d=" M 83.43 208.42 C 84.70 207.33 86.46 207.64 87.99 207.56 C 110.69 207.56 133.38 207.38 156.07 207.67 C 159.66 207.70 160.95 212.73 158.81 215.17 C 157.72 216.67 155.70 216.57 154.06 216.68 C 131.36 216.53 108.64 216.81 85.94 216.61 C 81.77 216.74 80.09 210.71 83.43 208.42 Z" />
<path fill="#10123b" opacity="1.00" d=" M 187.23 208.21 C 188.98 207.25 191.10 207.68 193.01 207.52 C 215.04 207.61 237.07 207.44 259.09 207.57 C 264.25 207.35 265.01 215.47 260.14 216.54 C 236.70 216.83 213.25 216.62 189.82 216.59 C 185.27 217.17 183.65 210.41 187.23 208.21 Z" />
<path fill="#10123b" opacity="1.00" d=" M 84.57 230.54 C 108.01 229.87 131.49 230.41 154.95 230.26 C 157.60 229.97 160.09 232.40 159.93 235.04 C 159.85 237.51 157.56 239.69 155.05 239.45 C 131.99 239.45 108.94 239.53 85.89 239.41 C 81.20 239.59 80.19 231.81 84.57 230.54 Z" />
<path fill="#10123b" opacity="1.00" d=" M 188.45 230.51 C 211.30 229.88 234.18 230.45 257.04 230.22 C 258.68 230.19 260.49 230.16 261.81 231.32 C 264.18 233.03 264.04 237.04 261.56 238.59 C 260.25 239.64 258.51 239.49 256.95 239.51 C 234.28 239.32 211.60 239.68 188.94 239.32 C 184.39 239.05 183.97 231.27 188.45 230.51 Z" />
<path fill="#10123b" opacity="1.00" d=" M 84.45 253.35 C 106.97 252.58 129.53 253.28 152.06 253.00 C 154.42 253.09 157.56 252.55 159.03 254.92 C 161.28 257.75 158.77 262.64 155.08 262.15 C 132.05 262.23 109.01 262.26 85.98 262.14 C 81.26 262.49 80.14 254.73 84.45 253.35 Z" />
<path fill="#10123b" opacity="1.00" d=" M 188.36 253.27 C 211.22 252.74 234.15 253.16 257.04 253.05 C 259.16 252.91 261.71 253.11 262.83 255.23 C 264.77 258.02 262.48 262.27 259.07 262.15 C 238.05 262.27 217.02 262.20 195.99 262.18 C 193.10 261.74 190.02 262.67 187.26 261.56 C 184.23 259.38 184.70 254.40 188.36 253.27 Z" />
<path fill="#10123b" opacity="1.00" d=" M 85.34 275.40 C 104.90 275.13 124.47 275.28 144.03 275.35 C 148.38 275.32 152.80 274.86 157.11 275.67 C 160.89 276.78 160.64 283.03 156.99 284.18 C 154.00 284.57 150.98 284.40 147.98 284.45 C 127.32 284.35 106.66 284.53 86.00 284.37 C 80.78 284.83 80.24 275.72 85.34 275.40 Z" />
<path fill="#10123b" opacity="1.00" d=" M 189.30 275.34 C 212.73 275.33 236.17 275.07 259.59 275.44 C 264.92 275.49 264.44 284.92 259.06 284.34 C 235.68 284.52 212.31 284.44 188.94 284.36 C 183.89 283.75 184.13 275.51 189.30 275.34 Z" />
<path fill="#10123b" opacity="1.00" d=" M 84.41 298.34 C 107.91 297.61 131.47 298.20 154.99 298.04 C 158.28 297.60 161.02 301.57 159.51 304.50 C 158.64 306.67 156.13 307.43 153.99 307.26 C 131.31 307.15 108.63 307.37 85.95 307.15 C 81.29 307.41 80.15 299.80 84.41 298.34 Z" />
<path fill="#10123b" opacity="1.00" d=" M 187.57 298.52 C 210.34 297.34 233.23 298.38 256.05 297.98 C 258.45 297.93 261.47 297.78 262.87 300.19 C 264.73 302.96 262.39 307.37 259.01 307.18 C 235.68 307.21 212.34 307.41 189.02 307.07 C 184.85 306.83 183.91 300.26 187.57 298.52 Z" />
</g>
<g id="#ffffffff">
<path fill="#ffffff" opacity="1.00" d=" M 57.57 111.03 C 84.98 111.05 112.40 110.94 139.81 111.08 C 147.31 117.09 156.07 122.02 165.77 123.16 C 179.63 125.45 194.30 121.01 204.92 111.90 C 205.96 110.70 207.60 111.06 209.00 111.00 C 235.44 111.05 261.88 111.00 288.32 111.02 C 288.42 179.02 288.31 247.03 288.39 315.03 C 288.50 320.01 285.76 325.04 281.31 327.38 C 277.92 329.32 273.87 329.48 270.05 329.48 C 258.71 328.94 247.35 329.19 236.00 329.09 C 192.95 329.07 149.90 328.93 106.86 329.26 C 96.23 328.59 85.56 329.57 74.93 329.30 C 71.28 328.63 67.06 329.51 63.96 327.03 C 60.04 324.36 57.52 319.74 57.63 314.98 C 57.60 246.99 57.59 179.01 57.57 111.03 M 116.54 133.49 C 115.81 138.29 116.38 143.17 116.23 148.00 C 111.57 148.11 106.88 147.63 102.24 148.24 C 98.37 148.95 97.96 155.17 101.52 156.66 C 106.34 157.59 111.30 156.92 116.18 157.05 C 116.41 161.86 115.79 166.72 116.54 171.50 C 117.78 175.39 124.49 175.04 125.16 170.96 C 125.59 166.35 125.25 161.72 125.30 157.10 C 130.12 156.92 134.98 157.46 139.77 156.81 C 143.36 155.50 143.38 149.53 139.72 148.30 C 134.94 147.58 130.09 148.18 125.27 147.94 C 125.26 143.31 125.62 138.65 125.12 134.04 C 124.40 130.03 117.87 129.73 116.54 133.49 M 202.86 154.03 C 203.41 156.28 205.92 157.25 208.03 157.14 C 219.94 156.85 231.86 157.55 243.76 156.76 C 246.74 154.53 246.57 149.28 242.80 148.07 C 230.89 147.89 218.96 147.94 207.05 148.06 C 204.06 147.82 201.72 151.31 202.86 154.03 M 85.33 185.40 C 80.16 185.94 80.75 194.53 85.93 194.42 C 109.32 194.52 132.71 194.54 156.09 194.39 C 161.26 193.86 160.94 185.49 155.81 185.33 C 132.32 185.32 108.81 185.18 85.33 185.40 M 188.53 185.53 C 183.95 186.17 184.37 194.12 188.97 194.35 C 211.67 194.72 234.38 194.34 257.08 194.53 C 259.27 194.63 261.98 194.21 263.01 191.98 C 264.67 189.13 262.18 184.99 258.85 185.33 C 235.41 185.40 211.96 184.98 188.53 185.53 M 83.43 208.42 C 80.09 210.71 81.77 216.74 85.94 216.61 C 108.64 216.81 131.36 216.53 154.06 216.68 C 155.70 216.57 157.72 216.67 158.81 215.17 C 160.95 212.73 159.66 207.70 156.07 207.67 C 133.38 207.38 110.69 207.56 87.99 207.56 C 86.46 207.64 84.70 207.33 83.43 208.42 M 187.23 208.21 C 183.65 210.41 185.27 217.17 189.82 216.59 C 213.25 216.62 236.70 216.83 260.14 216.54 C 265.01 215.47 264.25 207.35 259.09 207.57 C 237.07 207.44 215.04 207.61 193.01 207.52 C 191.10 207.68 188.98 207.25 187.23 208.21 M 84.57 230.54 C 80.19 231.81 81.20 239.59 85.89 239.41 C 108.94 239.53 131.99 239.45 155.05 239.45 C 157.56 239.69 159.85 237.51 159.93 235.04 C 160.09 232.40 157.60 229.97 154.95 230.26 C 131.49 230.41 108.01 229.87 84.57 230.54 M 188.45 230.51 C 183.97 231.27 184.39 239.05 188.94 239.32 C 211.60 239.68 234.28 239.32 256.95 239.51 C 258.51 239.49 260.25 239.64 261.56 238.59 C 264.04 237.04 264.18 233.03 261.81 231.32 C 260.49 230.16 258.68 230.19 257.04 230.22 C 234.18 230.45 211.30 229.88 188.45 230.51 M 84.45 253.35 C 80.14 254.73 81.26 262.49 85.98 262.14 C 109.01 262.26 132.05 262.23 155.08 262.15 C 158.77 262.64 161.28 257.75 159.03 254.92 C 157.56 252.55 154.42 253.09 152.06 253.00 C 129.53 253.28 106.97 252.58 84.45 253.35 M 188.36 253.27 C 184.70 254.40 184.23 259.38 187.26 261.56 C 190.02 262.67 193.10 261.74 195.99 262.18 C 217.02 262.20 238.05 262.27 259.07 262.15 C 262.48 262.27 264.77 258.02 262.83 255.23 C 261.71 253.11 259.16 252.91 257.04 253.05 C 234.15 253.16 211.22 252.74 188.36 253.27 M 85.34 275.40 C 80.24 275.72 80.78 284.83 86.00 284.37 C 106.66 284.53 127.32 284.35 147.98 284.45 C 150.98 284.40 154.00 284.57 156.99 284.18 C 160.64 283.03 160.89 276.78 157.11 275.67 C 152.80 274.86 148.38 275.32 144.03 275.35 C 124.47 275.28 104.90 275.13 85.34 275.40 M 189.30 275.34 C 184.13 275.51 183.89 283.75 188.94 284.36 C 212.31 284.44 235.68 284.52 259.06 284.34 C 264.44 284.92 264.92 275.49 259.59 275.44 C 236.17 275.07 212.73 275.33 189.30 275.34 M 84.41 298.34 C 80.15 299.80 81.29 307.41 85.95 307.15 C 108.63 307.37 131.31 307.15 153.99 307.26 C 156.13 307.43 158.64 306.67 159.51 304.50 C 161.02 301.57 158.28 297.60 154.99 298.04 C 131.47 298.20 107.91 297.61 84.41 298.34 M 187.57 298.52 C 183.91 300.26 184.85 306.83 189.02 307.07 C 212.34 307.41 235.68 307.21 259.01 307.18 C 262.39 307.37 264.73 302.96 262.87 300.19 C 261.47 297.78 258.45 297.93 256.05 297.98 C 233.23 298.38 210.34 297.34 187.57 298.52 Z" />
</g>
<g id="#a9cf78ff">
<path fill="#a9cf78" opacity="1.00" d=" M 165.38 35.49 C 171.72 34.63 178.42 34.46 184.57 36.52 C 195.22 39.83 204.42 47.66 209.25 57.73 C 213.99 67.80 214.39 79.84 210.04 90.12 C 205.08 102.53 193.47 111.96 180.32 114.31 C 163.78 117.78 145.76 109.02 137.82 94.18 C 132.66 84.70 131.40 73.11 134.77 62.83 C 138.97 49.04 151.27 38.23 165.38 35.49 M 169.99 43.94 C 168.04 45.23 168.47 47.88 168.09 49.88 C 163.52 51.21 158.67 52.75 155.48 56.51 C 151.61 60.63 151.48 67.63 155.12 71.93 C 158.31 76.05 163.38 77.96 168.27 79.19 C 168.33 83.00 168.34 86.80 168.26 90.61 C 166.25 89.83 164.08 89.14 162.56 87.54 C 161.35 85.84 161.35 83.57 160.15 81.88 C 158.19 79.89 153.97 80.23 152.92 83.04 C 151.75 86.89 153.43 91.04 156.16 93.81 C 159.31 97.15 163.78 98.72 168.12 99.85 C 168.10 102.68 168.69 106.50 172.19 106.86 C 176.00 107.37 177.85 103.35 177.24 100.10 C 182.15 98.68 187.34 96.81 190.51 92.55 C 194.70 87.31 192.90 79.14 187.73 75.24 C 184.78 72.51 180.51 72.60 177.19 70.55 C 177.19 66.70 177.15 62.85 177.31 59.00 C 179.42 60.02 181.74 60.93 183.17 62.90 C 184.13 64.40 184.14 66.33 185.11 67.83 C 186.95 69.95 190.89 69.72 192.27 67.19 C 193.90 64.57 192.59 61.32 191.32 58.84 C 188.40 53.72 182.61 51.47 177.27 49.82 C 177.01 47.90 177.63 45.41 175.79 44.11 C 174.16 42.73 171.65 42.50 169.99 43.94 Z" />
<path fill="#a9cf78" opacity="1.00" d=" M 160.87 64.04 C 162.49 61.20 165.45 59.74 168.44 58.79 C 168.44 62.60 168.48 66.42 168.73 70.23 C 165.41 69.34 161.82 67.66 160.87 64.04 Z" />
<path fill="#a9cf78" opacity="1.00" d=" M 177.11 79.79 C 179.83 80.45 182.24 81.97 184.04 84.11 C 184.02 84.79 183.98 86.14 183.96 86.82 C 182.17 88.89 179.70 90.07 177.16 90.96 C 176.90 87.24 176.95 83.51 177.11 79.79 Z" />
</g>
<g id="#adcff2ff">
<path fill="#adcff2" opacity="1.00" d=" M 57.57 57.95 C 57.23 50.16 64.17 43.08 72.01 43.51 C 93.10 43.53 114.20 43.41 135.30 43.60 C 126.79 54.31 122.61 68.53 124.82 82.09 C 125.62 89.21 128.48 95.94 132.22 102.00 C 107.35 102.01 82.49 101.98 57.62 102.01 C 57.50 87.33 57.57 72.64 57.57 57.95 Z" />
<path fill="#adcff2" opacity="1.00" d=" M 210.72 43.65 C 231.79 43.32 252.88 43.59 273.96 43.51 C 280.10 43.23 285.88 47.53 287.77 53.30 C 288.47 56.15 288.34 59.11 288.38 62.03 C 288.39 75.36 288.49 88.68 288.33 102.01 C 263.48 101.98 238.64 102.01 213.79 102.00 C 225.33 84.46 224.03 59.88 210.72 43.65 Z" />
</g>
</svg>
